Patient4_TMGait_0pt7_02_left_05_EMG.mot
version=1
nRows=30
nColumns=33
inDegrees=no
endheader
time	1LAddLong	2LGlutMax	3LGlutMed	4LIliopsoas	5LSemiMemb	6LBicFemLong	7LRecFem	8LVastMed	9LVastLat	10LGasMed	11LTibAnt	12lTibPost	13LPeroneusLong	14LSol	15LExtDigLong	16LFlexDigLong	17RAddLong	18RGlutMax	19RGlutMed	20RIliopsoas	21RSemiMemb	22RBicFemLong	23RRecFem	24RVastMed	25RVastLat	26RGasMed	27RTibAnt	28RTibPost	29RPeroneusLong	30RSol	31RExtDigLong	32RFlexDigLong
6.518	0.007477	-0.030365	0.007172	0.02655	0.011292	0.027771	0.027924	0.010071	0.01709	0.049591	-0.016785	0.000153	0.04364	-0.049286	-0.007629	0.000305	0.006104	-0.17914	0.18601	0.011749	-0.028076	-0.06134	0.068665	0.2449	-0.12924	-0.003967	0.017395	-0.000153	-0.40894	0.048218	0.001373	-0.001831
6.519	0.014801	-0.02121	0.015259	0.014954	-0.009766	0.027618	0.037842	0.016632	0.016785	0.034943	-0.027771	0.00473	0.057678	-0.053864	0.001831	-0.001831	-0.000305	-0.26504	0.37582	0.23071	-0.029297	-0.065918	0.15228	0.009308	-0.36179	-0.00473	0.000916	-0.009155	-0.20767	0.008087	0.01236	-0.007782
6.52	0.007477	-0.041656	0.073395	0.013123	-0.020599	0.026245	0.017548	0.001068	0.023956	0.004883	0.011749	0.001373	0.097046	-0.050507	-0.010529	-0.005035	0.011292	-0.3273	-0.42816	0.26459	0.016022	-0.069885	0.18814	-0.021515	-0.48355	-0.002136	-0.093231	-0.00473	-0.53284	-0.020599	0.001984	-0.009308
6.521	0.007629	-0.041046	0.033875	0.004578	-0.008392	0.002594	0.022736	0.008392	0.026245	0.00473	0.065155	-0.001526	0.10056	-0.037384	0.003204	-0.001068	0.029755	-0.32333	-0.53131	0.16022	0.070496	-0.055389	0.17059	-0.09613	-0.23758	-0.007172	0.049133	-0.004578	1.088	-0.0177	0.003204	-0.011597
6.522	0.003967	-0.022583	-0.016632	0.006104	-0.013123	-0.006104	0.02655	0.00824	0.018005	-0.006256	0.074615	0.001984	0.082245	-0.037842	0.002136	-0.007324	0.03067	-0.24826	-0.32516	0.014801	0.042114	-0.071106	0.17853	-0.2359	-0.054321	-0.011292	0.099182	-0.006104	0.80597	0.04715	0.000763	-0.020142
6.523	0.006104	-0.044403	-0.000916	0.023956	-0.032654	-0.021667	0.024414	0.009003	0.027008	-0.007935	0.043335	0.000458	0.09201	-0.030212	0.021057	0.002136	0.017395	-0.23972	-0.32806	-0.11993	-0.085449	-0.021973	0.14358	-0.23163	0.015106	-0.008392	-0.089417	-0.007477	0.30045	0.10147	0.001984	-0.019684
6.524	0.002747	-0.040894	-0.06012	0.008545	-0.022888	-0.013885	0.015411	0.005341	0.024109	-0.009918	0.055847	0.000305	0.11139	-0.012512	-0.015564	-0.001373	0.00473	-0.17151	-0.27847	-0.093689	-0.25574	0.000763	0.17441	-0.077515	0.050964	0.002899	-0.13245	-0.003967	0.39612	0.006714	0.001221	-0.021667
6.525	0.009766	-0.012512	-0.088501	0.013275	-0.000916	-0.01236	0.014648	0.00351	0.02594	0.004425	0.025177	0.005951	0.095062	-0.014496	0.098877	-0.003357	-0.001984	-0.15228	-0.38223	0.062714	-0.12009	-0.015717	-0.039673	0.043488	0.024872	-0.001526	-0.14297	-0.00473	-0.23483	0.061035	0.001984	-0.020142
6.526	0.005646	-0.025177	-0.084381	0.006256	0.00885	0.006409	-0.000153	0.003967	0.024414	-0.003357	0.013275	0.002289	0.095062	-0.028839	0.55603	-0.00061	-0.016327	-0.10239	-0.2536	0.15411	-0.068207	-0.030823	-0.14084	0.12222	0.013275	0.00061	-0.12451	-0.009766	-0.50842	0.037231	0.000305	-0.014801
6.527	0.01236	-0.019379	0.010681	0.00946	-0.014801	0.026245	0.029907	0.004272	0.012512	-0.00824	0.036316	-0.00351	0.090179	-0.008087	0.27863	0.007172	-0.023804	-0.18326	0.36194	0.13748	0.021515	0.013733	-0.030975	0.16602	0.086517	-0.002136	-0.16968	-0.006104	-0.082397	0.021057	0.001678	-0.013733
6.528	0.012665	-0.034332	0.047455	0.00351	-0.002136	0.028839	0.018005	0.010223	0.01358	-0.006866	0.015869	0.008087	0.098114	-0.00061	-0.46738	-0.002594	-0.00351	-0.18326	0.32074	-0.019379	0.055084	0.025177	0.20065	0.3772	0.014343	0.000763	-0.37415	-0.004425	0.59509	-0.016479	0.00061	-0.003815
6.529	0.005035	-0.013733	0.027313	-0.007172	-0.016632	0.040436	0.029297	0.004272	0.012207	-0.003662	-0.030212	-0.00351	0.10742	-0.006714	-0.3038	-0.005035	0.00412	-0.090332	0.3685	-0.11032	0.014648	0.00061	0.08316	0.21805	-0.061188	0.006714	-0.31281	0.005188	-0.095673	-0.050812	0.001984	-0.009766
6.53	0.003204	0.002136	0.010834	-0.000763	-0.017548	-0.009613	0.033875	0.002289	0.014496	-0.014191	-0.044708	-0.005341	0.13107	-0.0354	-0.25879	-0.003052	-0.004578	-0.10025	0.27084	-0.12054	0.012512	-0.022888	-0.079193	-0.10574	-0.06485	0	-0.1326	-0.005341	-0.29572	0.091095	-0.001068	-0.003204
6.531	0.007019	0.016022	-0.041809	-0.02121	-0.050964	-0.010223	0.010071	0.000763	0.019531	-0.026093	-0.02594	-0.000153	0.1593	-0.022278	-0.17349	0.000305	0.009308	-0.091095	0.076904	-0.055542	-0.010376	-0.036621	-0.098114	-0.24521	0.30838	-0.000916	-0.10834	-0.010376	0.28641	0.1355	0.000916	-0.011597
6.532	0.002747	-0.013428	-0.13214	0.000458	-0.056305	-0.039978	0.014496	0.004272	0.01358	-0.014648	0.071106	-0.00351	0.14038	-0.052032	-0.043793	-0.003967	0.014648	-0.034027	-0.25864	-0.054779	-0.014343	-0.041199	-0.16419	-0.17075	0.46417	0	0.004272	-0.00885	0.36331	0.10056	0.005188	-0.009613
6.533	0.011292	-0.001984	-0.001526	0.004425	-0.099182	-0.046692	0.016174	0.012512	0.01297	-0.002441	0.12161	-0.003967	0.11749	-0.087128	-0.009308	-0.010681	0.016632	0.030975	-0.31174	-0.11353	-0.009613	-0.048981	-0.11948	-0.14084	0.47745	-0.005035	0.047913	-0.005341	0.17105	0.054932	0.003204	-0.009766
6.534	0.010223	-0.046539	0.14374	0.014496	-0.038757	-0.066071	0.01709	-0.00351	0.020599	-0.000916	0.025177	-0.011902	0.11841	-0.052032	-0.016174	-0.003204	0.012817	0.000458	-0.47043	-0.016785	0.022736	-0.063782	-0.014343	-0.13473	0.38666	-0.003662	0.054626	-0.00473	-0.13336	0.030518	0.001831	-0.011749
6.535	0.015411	-0.10483	0.08194	0.00351	0.067139	-0.04837	0.015259	-0.001526	0.026398	-0.026398	-0.053253	-0.003967	0.13107	-0.008545	0.11902	-0.00473	-0.002441	-0.093842	-0.21454	0.077057	0.023041	-0.033569	0.19409	-0.035553	0.31113	-0.019379	0.08194	-0.008698	-0.3122	0.086823	0.001526	-0.006256
6.536	0.016785	-0.10178	0.074768	-0.006714	0.06958	-0.016479	0.013123	-0.006104	0.021057	-0.019989	-0.04776	-0.00412	0.1059	-0.029602	0.20874	0.007324	0.000916	-0.1152	-0.25803	0.15182	-0.008698	-0.02243	0.35004	0.11566	0.14877	-0.02182	0.070648	-0.005341	-0.33371	0.095673	0.001831	-0.010986
6.537	0.016022	-0.072784	0.069733	-0.005646	0.010986	-0.00061	0.030975	-0.004272	0.028839	-0.023041	-0.032501	0.001068	0.091248	-0.041351	0.028839	-0.002594	0	-0.078125	-0.45502	0.14069	-0.018768	0.03952	0.44647	0.033264	-0.22324	-0.014648	0.091858	-0.004578	-0.24689	0.090942	0.005646	-0.016785
6.538	0.006714	-0.066528	0.056152	-0.006104	-0.023193	-0.002289	0.025635	-0.000153	0.025787	-0.024719	-0.013733	0.000916	0.11398	-0.049896	0.009613	-0.002289	-0.000305	-0.13473	-0.42831	0.13184	-0.036469	0.053558	0.36331	-0.093994	-0.63355	-0.022583	0.094604	-0.005493	0.4599	0.013123	0.000763	-0.013428
6.539	-0.000305	-0.071411	0.032196	0.00885	0.000305	-0.002136	0.032959	0.002594	0.035858	-0.024719	-0.008545	-0.001526	0.11551	-0.054779	-0.006714	-0.00412	0.001831	-0.088348	-0.41214	0.082397	-0.034027	0.045319	0.21103	-0.16525	-0.78735	-0.023193	0.12543	-0.000458	0.48782	-0.058136	0.002289	-0.012817
6.54	-0.011749	-0.043945	0.012665	0.010834	0.025787	0.003662	0.017853	-0.00061	0.039368	-0.037689	-0.013885	-0.006866	0.1001	-0.059052	-0.001831	-0.010681	-0.015106	-0.12451	0.16815	-0.10162	-0.014648	0.026245	-0.22629	-0.13687	-0.46967	-0.018158	0.070953	-0.003204	0.25894	-0.12299	-0.005493	-0.011597
6.541	-0.007629	-0.024567	-0.012207	-0.006714	0.033722	-0.001068	0.041656	0.007172	0.03891	-0.032501	-0.016022	-0.001373	0.103	-0.061646	-0.037537	0.004578	-0.003204	-0.058594	-0.13504	-0.31479	-0.02182	-0.014648	-0.19211	-0.093231	-0.089417	-0.014343	0.010376	-0.006561	0.16495	-0.43274	0.001373	-0.011597
6.542	-0.002289	-0.038605	-0.04364	0.003662	0.020447	-0.030365	0.036621	0.003357	0.03418	-0.031433	-0.0177	-0.003357	0.091705	-0.055847	-0.050049	-0.01297	0.014038	-0.034485	-0.56427	-0.28442	-0.029297	-0.049744	-0.20096	-0.029449	0.1236	-0.017548	0.11658	-0.004272	-0.023041	-0.3447	0.000458	-0.014801
6.543	0.01297	-0.046387	-0.09964	0.001068	-0.087585	-0.06073	0.005646	-0.002289	0.028687	-0.015106	-0.004425	-0.010681	0.081177	-0.05188	-0.062866	0.005646	-0.014801	-0.093231	-0.33218	-0.11429	-0.010529	-0.019226	-0.25848	-0.10574	0.17303	-0.022278	0.15228	-0.001221	-0.045166	-0.18204	0.001373	-0.022125
6.544	0.02243	-0.077362	-0.089874	0.021973	-0.031281	-0.078888	0.020142	-0.005493	0.018616	-0.005188	0.02121	-0.005951	0.073853	-0.028534	-0.010681	-0.007935	-0.004425	-0.079041	0.19775	0.081329	-0.0177	-0.032043	-0.28885	-0.054016	0.11246	-0.024719	0.16846	-0.006409	0.20203	-0.59006	-0.001068	-0.017242
6.545	0.025635	-0.035095	-0.078735	0.00061	0.035095	-0.061188	0.031433	-0.002441	0.007629	-0.009766	0.085297	-0.007019	0.069733	-0.044708	0.20737	0.007935	0.016022	-0.10056	-0.033722	0.19745	-0.014038	-0.081024	-0.19867	-0.001373	0.14313	-0.019379	0.084076	-0.002899	0.23773	-0.64697	0.004272	-0.012512
6.546	0.021057	-0.02243	0.052032	0.000763	-0.006866	-0.022888	0.021667	0.003662	0.01236	-0.01358	0.05722	0.000305	0.068512	-0.082703	0.25345	-0.003357	0.003052	-0.11398	0.059967	0.18204	-0.003204	-0.055389	-0.068665	-0.15671	0.084839	-0.012665	-0.020294	0.000916	0.13275	0.14801	0.002136	-0.014648
6.547	0.009766	-0.076447	-0.02182	-0.015869	-0.007782	-0.013275	0.041046	0.00061	0.002289	-0.001373	-0.077209	-0.000153	0.097046	-0.067902	0.042877	0.011292	-0.000916	-0.10696	-0.1152	0.14114	-0.014191	-0.023041	-0.066223	-0.24414	0.065002	-0.000916	0.070648	-0.00412	0.075226	0.44708	0	-0.005341
